<svg width="362" height="46" viewBox="0 0 362 46" fill="none" xmlns="http://www.w3.org/2000/svg">
<path fill-rule="evenodd" clip-rule="evenodd" d="M21.6859 29.2497H10.0928V24.9012C10.0928 24.4932 10.2529 24.102 10.5378 23.8135C10.8228 23.5251 11.2093 23.363 11.6123 23.363H31.7595C32.1625 23.363 32.549 23.5251 32.834 23.8135C33.1189 24.102 33.279 24.4932 33.279 24.9012V29.2497H21.6859Z" fill="white"/>
<path fill-rule="evenodd" clip-rule="evenodd" d="M21.6858 25.0339L22.7175 25.7935L23.768 26.5531L22.9614 29.0217H20.3914L19.6035 26.5721L20.6353 25.8125L21.6858 25.0339Z" fill="#AF1E2D"/>
<path fill-rule="evenodd" clip-rule="evenodd" d="M21.686 30.1233H20.673L18.4219 41.2701L21.6672 45.3908L24.9125 41.2701L22.6614 30.1233H21.686Z" fill="white"/>
<path fill-rule="evenodd" clip-rule="evenodd" d="M21.6863 7.41198C23.2916 7.42087 24.8518 7.95071 26.1377 8.92365C27.4235 9.89659 28.3673 11.2613 28.8302 12.8174C29.2931 14.3734 29.2508 16.0388 28.7095 17.5687C28.1682 19.0986 27.1565 20.4125 25.8229 21.3172C24.4894 22.222 22.9043 22.67 21.3006 22.5954C19.697 22.5207 18.1592 21.9274 16.9133 20.9026C15.6674 19.8778 14.779 18.4755 14.3787 16.9018C13.9783 15.3281 14.0871 13.6658 14.6891 12.1593C15.2523 10.7501 16.2201 9.54435 17.4676 8.698C18.715 7.85166 20.1846 7.40367 21.6863 7.41198Z" fill="white"/>
<path fill-rule="evenodd" clip-rule="evenodd" d="M18.196 20.4767C18.167 20.4483 18.144 20.4144 18.1283 20.3769C18.1126 20.3394 18.1045 20.299 18.1045 20.2583C18.1045 20.2175 18.1126 20.1772 18.1283 20.1397C18.144 20.1022 18.167 20.0682 18.196 20.0399C18.196 20.0399 18.4773 20.0399 18.6274 20.1728C19.5077 20.7492 20.5336 21.0558 21.582 21.0558C22.6303 21.0558 23.6563 20.7492 24.5365 20.1728C24.5893 20.1125 24.6576 20.0682 24.7337 20.0448C24.8099 20.0213 24.891 20.0196 24.968 20.0399C24.968 20.0399 25.0993 20.2868 24.968 20.4767C23.9831 21.1813 22.8067 21.5596 21.6007 21.5596C20.3947 21.5596 19.2183 21.1813 18.2335 20.4767H18.196Z" fill="#AF1E2D"/>
<path fill-rule="evenodd" clip-rule="evenodd" d="M27.2758 43.0741C32.345 41.6926 36.7457 38.4935 39.6584 34.0722C42.5711 29.651 43.7975 24.3089 43.1091 19.0406C42.4208 13.7722 39.8647 8.93656 35.9167 5.43384C31.9687 1.93111 26.8978 0 21.648 0C16.3983 0 11.3274 1.93111 7.37936 5.43384C3.43135 8.93656 0.875256 13.7722 0.186935 19.0406C-0.501386 24.3089 0.724969 29.651 3.6377 34.0722C6.55043 38.4935 10.951 41.6926 16.0203 43.0741V38.8205C12.0618 37.4695 8.7065 34.7383 6.55334 31.1146C4.40018 27.4908 3.58935 23.2104 4.26559 19.0375C4.94183 14.8645 7.06112 11.0707 10.2451 8.33323C13.4291 5.59577 17.4706 4.0929 21.648 4.0929C25.8255 4.0929 29.8669 5.59577 33.0509 8.33323C36.235 11.0707 38.3542 14.8645 39.0305 19.0375C39.7067 23.2104 38.8959 27.4908 36.7427 31.1146C34.5896 34.7383 31.2343 37.4695 27.2758 38.8205V43.0741Z" fill="white"/>
<path d="M49.7734 33.7204L60.9199 16.1415H50.4342V11.5155H69.8635L58.673 29.0944H69.7754V33.7204H49.7734ZM82.8185 34.161C76.8267 34.161 71.8482 29.0503 71.8482 22.5739C71.8482 16.1415 76.8267 10.9868 82.8185 10.9868C85.9906 10.9868 88.4138 12.1323 90.0439 14.0268V11.5155H95.7713V33.7204H90.4404L90.3082 30.8567C88.634 32.9274 86.1228 34.161 82.8185 34.161ZM83.9199 28.9622C87.4445 28.9622 90.2201 26.0985 90.2201 22.5739C90.2201 19.0493 87.4445 16.2296 83.9199 16.2296C80.3513 16.2296 77.5756 19.0493 77.5756 22.5739C77.5756 26.0985 80.3513 28.9622 83.9199 28.9622ZM101.342 33.7204V11.5155H107.026V13.5421C108.612 11.9561 110.727 11.0749 112.974 11.0749C117.423 11.0749 120.948 14.7317 120.948 19.3577V33.7204H115.221V20.0626C115.221 17.7276 113.458 16.0975 111.211 16.0975C108.832 16.0975 107.07 17.8157 107.026 20.0626V33.7204H101.342ZM136.298 44.2942C132.333 44.2942 127.927 42.4878 125.416 38.8311L129.028 35.2184C130.703 37.7737 133.39 39.1835 136.122 39.1835C139.867 39.1835 142.73 36.496 142.73 32.3987V31.077C141.144 32.8833 138.853 33.9407 135.813 33.9407C129.337 33.9407 124.446 29.0063 124.446 22.618C124.446 16.1856 129.381 11.0749 135.681 11.0749C138.809 11.0749 141.144 12.2204 142.73 14.0708V11.5155H148.502V32.3987C148.502 39.5801 143.259 44.2942 136.298 44.2942ZM136.518 29.0063C140.043 29.0063 142.906 26.1426 142.906 22.618C142.906 19.0493 140.043 16.2296 136.518 16.2296C132.95 16.2296 130.174 19.0493 130.174 22.618C130.174 26.1426 132.95 29.0063 136.518 29.0063ZM156.934 7.59445C155.128 7.59445 153.586 6.14056 153.586 4.29015C153.586 2.43974 155.128 0.98584 156.934 0.98584C158.784 0.98584 160.282 2.43974 160.282 4.29015C160.282 6.14056 158.784 7.59445 156.934 7.59445ZM154.114 33.7204V11.5155H159.754V33.7204H154.114ZM174.85 34.161C168.858 34.161 163.88 29.0503 163.88 22.5739C163.88 16.1415 168.858 10.9868 174.85 10.9868C178.022 10.9868 180.445 12.1323 182.075 14.0268V11.5155H187.803V33.7204H182.472L182.34 30.8567C180.665 32.9274 178.154 34.161 174.85 34.161ZM175.951 28.9622C179.476 28.9622 182.251 26.0985 182.251 22.5739C182.251 19.0493 179.476 16.2296 175.951 16.2296C172.383 16.2296 169.607 19.0493 169.607 22.5739C169.607 26.0985 172.383 28.9622 175.951 28.9622Z" fill="white"/>
<path d="M207.617 33.7204V16.1415H203.255V11.5155H207.617V3.54117H213.344V11.5155H217.662V16.1415H213.344V33.7204H207.617ZM233.573 16.7143C230.18 16.0534 226.788 17.4192 226.788 23.8956V33.7204H221.105V11.5155H226.788V14.6436C228.11 12.3967 229.96 11.0749 232.78 11.0749C233.044 11.0749 233.308 11.0749 233.573 11.119V16.7143ZM246.101 34.161C240.109 34.161 235.13 29.0503 235.13 22.5739C235.13 16.1415 240.109 10.9868 246.101 10.9868C249.273 10.9868 251.696 12.1323 253.326 14.0268V11.5155H259.053V33.7204H253.722L253.59 30.8567C251.916 32.9274 249.405 34.161 246.101 34.161ZM247.202 28.9622C250.727 28.9622 253.502 26.0985 253.502 22.5739C253.502 19.0493 250.727 16.2296 247.202 16.2296C243.633 16.2296 240.858 19.0493 240.858 22.5739C240.858 26.0985 243.633 28.9622 247.202 28.9622ZM267.489 7.59445C265.682 7.59445 264.14 6.14056 264.14 4.29015C264.14 2.43974 265.682 0.98584 267.489 0.98584C269.339 0.98584 270.837 2.43974 270.837 4.29015C270.837 6.14056 269.339 7.59445 267.489 7.59445ZM264.669 33.7204V11.5155H270.308V33.7204H264.669ZM275.844 33.7204V11.5155H281.528V13.5421C283.114 11.9561 285.228 11.0749 287.475 11.0749C291.925 11.0749 295.45 14.7317 295.45 19.3577V33.7204H289.722V20.0626C289.722 17.7276 287.96 16.0975 285.713 16.0975C283.334 16.0975 281.572 17.8157 281.528 20.0626V33.7204H275.844ZM303.222 7.59445C301.415 7.59445 299.873 6.14056 299.873 4.29015C299.873 2.43974 301.415 0.98584 303.222 0.98584C305.072 0.98584 306.57 2.43974 306.57 4.29015C306.57 6.14056 305.072 7.59445 303.222 7.59445ZM300.402 33.7204V11.5155H306.041V33.7204H300.402ZM311.577 33.7204V11.5155H317.26V13.5421C318.847 11.9561 320.961 11.0749 323.208 11.0749C327.658 11.0749 331.183 14.7317 331.183 19.3577V33.7204H325.455V20.0626C325.455 17.7276 323.693 16.0975 321.446 16.0975C319.067 16.0975 317.305 17.8157 317.26 20.0626V33.7204H311.577ZM346.532 44.2942C342.567 44.2942 338.162 42.4878 335.65 38.8311L339.263 35.2184C340.937 37.7737 343.625 39.1835 346.356 39.1835C350.101 39.1835 352.965 36.496 352.965 32.3987V31.077C351.379 32.8833 349.088 33.9407 346.048 33.9407C339.571 33.9407 334.681 29.0063 334.681 22.618C334.681 16.1856 339.615 11.0749 345.916 11.0749C349.044 11.0749 351.379 12.2204 352.965 14.0708V11.5155H358.736V32.3987C358.736 39.5801 353.494 44.2942 346.532 44.2942ZM346.753 29.0063C350.277 29.0063 353.141 26.1426 353.141 22.618C353.141 19.0493 350.277 16.2296 346.753 16.2296C343.184 16.2296 340.409 19.0493 340.409 22.618C340.409 26.1426 343.184 29.0063 346.753 29.0063Z" fill="white"/>
</svg>
